<svg width="1920" height="1080" viewBox="0 0 1920 1080" fill="none" xmlns="http://www.w3.org/2000/svg">
  <rect width="1920" height="1080" fill="#06080C"/>
  <defs>
    <linearGradient id="g1" x1="0" y1="0" x2="1" y2="1">
      <stop offset="0" stop-color="#6FD7FF" stop-opacity="0.3"/>
      <stop offset="1" stop-color="#6FD7FF" stop-opacity="0.02"/>
    </linearGradient>
  </defs>
  <g opacity="0.22" stroke="url(#g1)">
    <path d="M0 210H480L660 340H1140L1340 170H1920" stroke-width="2"/>
    <path d="M0 530H390L560 460H850L1100 620H1920" stroke-width="2"/>
    <path d="M0 880H700L930 730H1250L1490 900H1920" stroke-width="2"/>
  </g>
  <g opacity="0.15" fill="#E4B15A">
    <rect x="60" y="710" width="160" height="320"/>
    <rect x="280" y="630" width="220" height="400"/>
    <rect x="560" y="780" width="140" height="250"/>
    <rect x="1210" y="660" width="170" height="370"/>
    <rect x="1450" y="760" width="240" height="270"/>
    <rect x="1730" y="700" width="130" height="330"/>
  </g>
  <g opacity="0.24" fill="#A2ECFF">
    <circle cx="660" cy="340" r="6"/>
    <circle cx="1100" cy="620" r="6"/>
    <circle cx="930" cy="730" r="6"/>
  </g>
</svg>
