<svg width="1920" height="1080" viewBox="0 0 1920 1080" fill="none" xmlns="http://www.w3.org/2000/svg">
  <rect width="1920" height="1080" fill="#07080A"/>
  <defs>
    <radialGradient id="glow1" cx="0" cy="0" r="1" gradientUnits="userSpaceOnUse" gradientTransform="translate(240 200) rotate(24) scale(620 460)">
      <stop stop-color="#1E2430"/>
      <stop offset="1" stop-color="#07080A" stop-opacity="0"/>
    </radialGradient>
    <radialGradient id="glow2" cx="0" cy="0" r="1" gradientUnits="userSpaceOnUse" gradientTransform="translate(1560 840) rotate(-18) scale(680 520)">
      <stop stop-color="#111820"/>
      <stop offset="1" stop-color="#07080A" stop-opacity="0"/>
    </radialGradient>
    <linearGradient id="line" x1="0" y1="0" x2="1" y2="1">
      <stop offset="0" stop-color="#37B4D4" stop-opacity="0.35"/>
      <stop offset="1" stop-color="#8FE6FF" stop-opacity="0.08"/>
    </linearGradient>
  </defs>

  <rect width="1920" height="1080" fill="url(#glow1)"/>
  <rect width="1920" height="1080" fill="url(#glow2)"/>

  <g opacity="0.3" stroke="url(#line)">
    <path d="M0 170H560L690 290H1080L1260 120H1920" stroke-width="2"/>
    <path d="M0 520H420L520 460H860L1080 610H1920" stroke-width="2"/>
    <path d="M0 930H760L930 760H1210L1410 960H1920" stroke-width="2"/>
    <path d="M210 0V1080" stroke-width="1"/>
    <path d="M710 0V1080" stroke-width="1"/>
    <path d="M1210 0V1080" stroke-width="1"/>
    <path d="M1660 0V1080" stroke-width="1"/>
  </g>

  <g opacity="0.2" fill="#8FE6FF">
    <circle cx="560" cy="170" r="6"/>
    <circle cx="1080" cy="170" r="6"/>
    <circle cx="520" cy="460" r="5"/>
    <circle cx="1080" cy="610" r="5"/>
    <circle cx="930" cy="760" r="5"/>
    <circle cx="1410" cy="960" r="6"/>
  </g>

  <g opacity="0.12" fill="#D7A64B">
    <rect x="120" y="770" width="160" height="220"/>
    <rect x="320" y="700" width="210" height="290"/>
    <rect x="590" y="740" width="110" height="250"/>
    <rect x="1210" y="690" width="150" height="300"/>
    <rect x="1410" y="760" width="220" height="230"/>
    <rect x="1680" y="670" width="120" height="320"/>
  </g>
</svg>
